<svg width="17" height="16" viewBox="0 0 17 16" fill="none" xmlns="http://www.w3.org/2000/svg">
<rect width="16" height="16" fill="#FB8C00"/>
<path d="M1.15527 11V1.04688H3.96484C4.83073 1.04688 5.59635 1.23828 6.26172 1.62109C6.92708 2.00391 7.43978 2.5485 7.7998 3.25488C8.16439 3.96126 8.34896 4.77246 8.35352 5.68848V6.32422C8.35352 7.26302 8.17122 8.08561 7.80664 8.79199C7.44661 9.49837 6.92936 10.0407 6.25488 10.4189C5.58496 10.7972 4.80339 10.9909 3.91016 11H1.15527ZM2.46777 2.12695V9.92676H3.84863C4.86035 9.92676 5.64648 9.6123 6.20703 8.9834C6.77214 8.35449 7.05469 7.45898 7.05469 6.29688V5.71582C7.05469 4.58561 6.78809 3.70833 6.25488 3.08398C5.72624 2.45508 4.97428 2.13607 3.99902 2.12695H2.46777Z" fill="white"/>
<path d="M9.20361 15H8.38623V9.58154L6.74707 10.1836V9.44531L9.07617 8.5708H9.20361V15ZM15.5977 12.271C15.5977 13.2231 15.4351 13.9307 15.1099 14.3936C14.7847 14.8564 14.2764 15.0879 13.585 15.0879C12.9023 15.0879 12.397 14.8623 12.0688 14.4111C11.7407 13.957 11.5708 13.2803 11.5591 12.3809V11.2954C11.5591 10.355 11.7217 9.65625 12.0469 9.19922C12.3721 8.74219 12.8818 8.51367 13.5762 8.51367C14.2646 8.51367 14.7715 8.73486 15.0967 9.17725C15.4219 9.6167 15.5889 10.2964 15.5977 11.2163V12.271ZM14.7847 11.1592C14.7847 10.4707 14.688 9.96973 14.4946 9.65625C14.3013 9.33984 13.9951 9.18164 13.5762 9.18164C13.1602 9.18164 12.8569 9.33838 12.6665 9.65186C12.4761 9.96533 12.3779 10.4473 12.3721 11.0977V12.3984C12.3721 13.0898 12.4717 13.6011 12.6709 13.9321C12.873 14.2603 13.1777 14.4243 13.585 14.4243C13.9863 14.4243 14.2837 14.269 14.4771 13.9585C14.6733 13.6479 14.7759 13.1587 14.7847 12.4907V11.1592Z" fill="black"/>
</svg>
